<svg width="22" height="22" viewBox="0 0 22 22" fill="none" xmlns="http://www.w3.org/2000/svg">
<path d="M11 0C8.82441 0 6.69767 0.645139 4.88873 1.85383C3.07979 3.06253 1.66989 4.78049 0.83733 6.79048C0.00476613 8.80047 -0.213071 11.0122 0.211367 13.146C0.635804 15.2798 1.68345 17.2398 3.22183 18.7782C4.76021 20.3165 6.72022 21.3642 8.85401 21.7886C10.9878 22.2131 13.1995 21.9952 15.2095 21.1627C17.2195 20.3301 18.9375 18.9202 20.1462 17.1113C21.3549 15.3023 22 13.1756 22 11C21.9969 8.08356 20.837 5.28746 18.7748 3.22523C16.7125 1.16299 13.9164 0.00307981 11 0ZM8.21087 15.2308H13.7891C13.2212 17.1706 12.2692 18.9189 11 20.2961C9.73077 18.9189 8.77885 17.1706 8.21087 15.2308ZM7.82693 13.5385C7.54629 11.8578 7.54629 10.1422 7.82693 8.46154H14.1731C14.4537 10.1422 14.4537 11.8578 14.1731 13.5385H7.82693ZM1.69231 11C1.69158 10.1416 1.81011 9.28729 2.04452 8.46154H6.11241C5.85997 10.1444 5.85997 11.8556 6.11241 13.5385H2.04452C1.81011 12.7127 1.69158 11.8584 1.69231 11ZM13.7891 6.76923H8.21087C8.77885 4.82942 9.73077 3.08106 11 1.70394C12.2692 3.08106 13.2212 4.82942 13.7891 6.76923ZM15.8876 8.46154H19.9555C20.4251 10.1213 20.4251 11.8787 19.9555 13.5385H15.8876C16.14 11.8556 16.14 10.1444 15.8876 8.46154ZM19.2891 6.76923H15.5417C15.1099 5.07006 14.3847 3.45933 13.3988 2.00961C14.6584 2.3481 15.8332 2.94644 16.8476 3.76616C17.8621 4.58587 18.6937 5.60883 19.2891 6.76923ZM8.60116 2.00961C7.61527 3.45933 6.89009 5.07006 6.45827 6.76923H2.71087C3.30627 5.60883 4.13794 4.58587 5.15239 3.76616C6.16683 2.94644 7.34161 2.3481 8.60116 2.00961ZM2.71087 15.2308H6.45827C6.89009 16.9299 7.61527 18.5407 8.60116 19.9904C7.34161 19.6519 6.16683 19.0536 5.15239 18.2338C4.13794 17.4141 3.30627 16.3912 2.71087 15.2308ZM13.3988 19.9904C14.3847 18.5407 15.1099 16.9299 15.5417 15.2308H19.2891C18.6937 16.3912 17.8621 17.4141 16.8476 18.2338C15.8332 19.0536 14.6584 19.6519 13.3988 19.9904Z" fill="#343434"/>
</svg>
