<svg width="25" height="22" viewBox="0 0 25 22" fill="none" xmlns="http://www.w3.org/2000/svg">
<path d="M24.6787 3.31643C24.6093 3.14893 24.4919 3.00574 24.3412 2.90499C24.1904 2.80424 24.0132 2.75044 23.8319 2.7504H20.3452C19.8578 1.92104 19.164 1.23193 18.3313 0.750056C17.4987 0.268184 16.5555 0.0099507 15.5936 0.000462345C14.8769 -0.00893812 14.1656 0.125096 13.5014 0.394679C12.8373 0.664262 12.2338 1.06395 11.7265 1.57022C11.2043 2.08265 10.7898 2.69431 10.5075 3.36924C10.2251 4.04417 10.0805 4.76874 10.0822 5.50035V6.19814C5.4692 4.9813 1.69605 1.22877 1.65594 1.18867C1.53297 1.0646 1.3771 0.978256 1.20669 0.939805C1.03629 0.901353 0.858444 0.912395 0.694104 0.97163C0.529764 1.03086 0.385772 1.13582 0.279085 1.27415C0.172398 1.41248 0.107459 1.57841 0.0919148 1.7524C-0.401929 7.22823 1.18845 10.8925 2.6127 13.002C3.30714 14.0448 4.15196 14.9791 5.11973 15.7748C3.37466 17.7834 0.627008 18.8387 0.597217 18.8502C0.467871 18.8986 0.351145 18.9757 0.255761 19.0756C0.160377 19.1755 0.0888008 19.2956 0.0463813 19.4271C0.0039617 19.5585 -0.00820461 19.6978 0.0107911 19.8347C0.0297868 19.9715 0.0794533 20.1022 0.15608 20.2171C0.242016 20.3455 0.585759 20.7958 1.42564 21.2163C2.46374 21.7365 3.83527 22 5.49899 22C13.5964 22 20.3624 15.7645 21.0534 7.74155L24.4805 4.31558C24.6086 4.18732 24.6959 4.02393 24.7311 3.84608C24.7664 3.66823 24.7482 3.48391 24.6787 3.31643ZM19.5225 6.68626C19.3654 6.8438 19.2709 7.05313 19.2567 7.27521C18.7904 14.5041 12.7497 20.1667 5.49899 20.1667C4.28901 20.1667 3.43653 20.0063 2.83842 19.8138C4.15725 19.0977 5.99627 17.8659 7.17875 16.0922C7.24815 15.9879 7.29543 15.8705 7.31769 15.7472C7.33994 15.6239 7.33668 15.4974 7.30812 15.3754C7.27956 15.2534 7.2263 15.1386 7.15162 15.038C7.07695 14.9374 6.98245 14.8532 6.87396 14.7906C6.82011 14.7596 1.84271 11.7725 1.8324 3.7908C3.66569 5.28035 7.01719 7.59145 10.8465 8.23539C10.9777 8.25752 11.1122 8.2508 11.2406 8.21571C11.369 8.18061 11.4882 8.11798 11.5899 8.03217C11.6916 7.94636 11.7735 7.83942 11.8297 7.71879C11.8859 7.59816 11.9152 7.46673 11.9155 7.33364V5.50035C11.9145 5.01137 12.0113 4.52713 12.2002 4.07612C12.3891 3.62511 12.6663 3.21643 13.0155 2.87415C13.3503 2.53877 13.7488 2.2739 14.1877 2.0952C14.6266 1.91651 15.0968 1.82761 15.5707 1.83376C17.0212 1.85209 18.3767 2.73665 18.9439 4.03486C19.0154 4.19807 19.1329 4.33691 19.2821 4.43439C19.4313 4.53186 19.6056 4.58375 19.7838 4.5837H21.6171L19.5225 6.68626Z" fill="#343434"/>
</svg>
