<svg width="2760" height="2512" viewBox="0 0 2760 2512" fill="none" xmlns="http://www.w3.org/2000/svg">
<path d="M995.542 1293.33C1007.54 1389.6 1054.08 1466.4 1130.61 1516.4C1196.61 1559.33 1286.08 1581.07 1389.28 1579.2C1503.28 1577.07 1610.88 1548.53 1680.74 1502.13C1726.21 1472 1760.21 1433.2 1782.74 1386C1793.14 1363.87 1805.28 1326.67 1805.28 1316.53C1805.28 1314.67 1806.08 1312.93 1807.01 1312.53C1807.94 1312.27 1817.41 1316 1827.94 1321.07C1853.81 1333.33 1872.61 1341.6 1904.61 1354.67C1938.61 1368.4 1976.74 1387.07 1977.81 1390.27C1980.21 1398.27 2005.28 1494.67 2012.48 1523.47C2037.68 1624.93 2055.41 1719.2 2064.48 1800.67C2071.28 1860.53 2072.88 1908.13 2070.74 1990C2069.14 2054 2067.94 2075.73 2063.94 2125.33C2049.14 2303.73 2011.28 2424 1962.08 2448.93C1958.34 2450.8 1952.08 2452.67 1947.81 2452.93C1941.28 2453.6 1939.01 2453.07 1931.68 2449.73C1914.74 2441.73 1899.14 2425.73 1854.48 2370C1840.48 2352.4 1826.74 2335.6 1824.08 2332.53C1821.41 2329.6 1815.94 2323.33 1811.94 2318.67C1773.54 2273.6 1725.81 2232.4 1681.41 2205.6C1639.41 2180.27 1602.21 2165.87 1539.94 2150.8C1382.08 2112.53 1273.68 2119.47 1140.61 2176.27C1076.48 2203.6 974.209 2259.6 905.942 2304.67C864.875 2331.73 837.942 2352.4 794.075 2390.67C764.609 2416.13 753.142 2424.27 740.075 2428.8C720.342 2435.6 693.542 2436.53 680.342 2430.8C662.342 2422.93 651.275 2399.87 645.942 2359.33C640.742 2319.87 640.742 2227.73 645.942 2173.33C655.675 2071.33 686.609 1910.53 745.942 1654.67C748.086 1645.44 750.304 1635.92 752.421 1626.84C752.442 1626.75 752.464 1626.66 752.485 1626.56C757.318 1605.82 761.611 1587.4 763.275 1580C779.409 1510.27 801.409 1428.4 819.942 1369.2L825.275 1352.4L842.209 1344.4C877.542 1327.6 989.275 1278.8 991.942 1279.07C993.275 1279.33 994.342 1282.93 995.542 1293.33Z" fill="white"/>
<path d="M1297.81 1002.67C1317.94 1007.73 1333.41 1019.2 1340.88 1034.53C1344.21 1041.07 1344.61 1043.47 1344.61 1054.8C1344.61 1066.67 1344.34 1068 1339.68 1077.47C1323.41 1110.27 1275.81 1134.67 1228.08 1134.67C1198.74 1134.67 1179.14 1125.47 1169.54 1107.33C1166.48 1101.47 1166.08 1099.2 1166.08 1088C1166.08 1077.2 1166.61 1074 1169.94 1066.13C1181.94 1037.33 1214.61 1010.93 1247.94 1003.33C1253.41 1002.13 1258.61 1000.93 1259.28 1000.67C1264.34 999.067 1288.61 1000.27 1297.81 1002.67Z" fill="white"/>
<path fill-rule="evenodd" clip-rule="evenodd" d="M1494.34 18.2668C1445.28 72.8002 1412.34 113.2 1355.81 188.667C1239.28 344.133 1114.48 539.467 1042.08 680C1011.94 738.667 990.342 785.867 938.609 906.667C892.342 1014.53 860.609 1095.07 825.809 1192.4L815.542 1221.6L810.075 1220.8C785.542 1217.07 768.609 1216.53 752.609 1218.8C723.142 1222.8 704.742 1235.33 697.142 1256.13L694.209 1264H680.075C649.275 1264 597.942 1275.47 538.609 1295.47C475.675 1316.8 427.675 1338.93 413.675 1353.07C394.742 1372.27 380.875 1419.73 366.609 1514C363.275 1536.93 360.609 1550.67 359.409 1551.87C357.675 1553.47 356.742 1553.07 352.075 1549.47C343.942 1543.07 339.675 1541.87 332.609 1544.53C321.542 1548.8 305.275 1570.27 305.275 1580.67C305.275 1582.8 306.475 1586.93 307.942 1589.73C311.675 1596.53 311.275 1600.8 306.609 1606.67C300.875 1614 295.942 1615.6 289.275 1612.67C279.009 1608 269.275 1612.67 250.742 1630.93C242.609 1638.93 239.809 1642.8 234.475 1654C227.275 1668.93 218.075 1681.47 211.942 1684.67C194.075 1693.87 164.875 1688.8 89.4087 1663.47C66.342 1655.73 42.742 1648.4 37.0087 1647.07C27.2754 1645.07 26.2087 1645.07 21.942 1647.07C13.6754 1651.07 5.4087 1667.33 1.8087 1686.67C-2.9913 1713.07 1.94203 1737.07 14.4754 1748.4C20.4754 1753.87 32.8754 1758.8 63.542 1768.13C87.0087 1775.2 152.475 1792 178.209 1797.47C186.475 1799.2 193.275 1801.07 193.275 1801.6C193.275 1802.8 179.942 1812.93 170.209 1819.2C165.942 1821.87 148.875 1831.6 132.209 1840.93C73.0087 1873.73 65.8087 1878.93 53.8087 1897.6C34.2087 1927.87 24.8754 1958.27 31.142 1970.53C35.2754 1978.53 49.142 1986 69.942 1991.33C88.742 1996.27 102.875 1998 126.609 1998C146.609 1998 149.142 1997.73 155.009 1995.07C167.675 1989.07 177.009 1981.6 203.409 1955.87C233.009 1927.07 239.275 1922.67 251.275 1922.67C267.675 1922.67 277.675 1937.2 281.142 1966C284.209 1991.07 282.609 2024.93 275.675 2079.33C270.475 2120.13 269.675 2155.07 273.675 2165.47C276.609 2173.07 282.875 2179.33 290.475 2182C298.075 2184.67 326.342 2184.8 335.142 2182.13C349.142 2177.87 353.409 2171.6 364.609 2138.67C377.675 2100.27 378.342 2095.07 379.942 2021.33C381.142 1964 382.342 1951.07 387.942 1933.2C392.209 1919.33 396.875 1913.07 415.009 1896.4C437.275 1876 438.209 1875.47 445.542 1877.33C454.075 1879.6 471.675 1889.2 476.742 1894.27C479.142 1896.67 481.809 1901.2 482.742 1904.27C488.075 1924 491.142 1929.2 502.342 1937.07C512.875 1944.4 529.142 1952.27 542.609 1956.67C557.675 1961.6 580.209 1962 592.209 1957.6C607.675 1952 620.075 1941.47 630.609 1925.07C633.542 1920.67 635.942 1917.33 635.942 1917.87C635.942 1918.4 632.075 1939.07 627.409 1963.73C607.275 2068.67 597.009 2140.4 593.142 2203.33C591.009 2238.8 592.209 2338.93 595.142 2361.33C600.475 2403.07 609.009 2430.53 623.142 2451.87C630.342 2462.67 643.809 2475.73 653.675 2481.33C682.742 2498.13 731.809 2497.07 768.609 2478.8C784.209 2470.93 795.542 2462.8 821.542 2439.87C881.942 2386.93 927.675 2354.53 1004.74 2310.27C1139.28 2232.93 1221.14 2200 1306.61 2188.67C1329.41 2185.6 1375.81 2184.67 1401.28 2186.53C1451.94 2190.4 1517.54 2203.07 1573.28 2219.6C1627.54 2235.73 1685.41 2270.13 1731.14 2313.2C1760.21 2340.8 1779.28 2362.27 1821.94 2415.33C1855.01 2456.53 1869.68 2472.8 1885.68 2486.13C1898.88 2497.2 1911.01 2504.4 1923.94 2508.8C1935.41 2512.67 1957.54 2512.13 1970.34 2507.6C2007.81 2494.4 2038.08 2457.6 2062.34 2396C2083.81 2341.87 2102.08 2255.47 2110.61 2168.67C2111.28 2160.53 2112.21 2151.33 2112.61 2148C2113.94 2135.73 2116.08 2107.73 2118.08 2076.67C2120.88 2033.2 2122.21 1890.67 2120.08 1857.33C2115.68 1786.8 2103.54 1701.73 2086.21 1618.67L2081.81 1598L2096.08 1583.07C2111.54 1566.93 2121.68 1552.67 2130.61 1534.67C2140.88 1514.27 2146.61 1492.67 2146.61 1474.8V1465.87L2165.94 1440.53C2176.61 1426.67 2197.14 1399.87 2211.54 1380.93C2219.88 1370.07 2229.71 1357.23 2238.24 1346.09C2244.58 1337.82 2250.19 1330.49 2253.94 1325.6C2258.43 1319.75 2267.91 1307.32 2279.49 1292.13L2279.53 1292.07C2290.67 1277.47 2303.74 1260.32 2316.21 1244C2328.4 1228.13 2341.44 1211.07 2352.89 1196.09L2352.91 1196.07L2353.19 1195.7L2353.2 1195.69L2353.2 1195.69L2353.44 1195.37C2365.8 1179.21 2376.24 1165.55 2381.68 1158.53L2400.61 1133.73L2418.61 1132.93C2435.94 1132.13 2445.54 1130.53 2476.48 1123.47C2489.68 1120.4 2493.94 1120.13 2523.14 1120C2553.68 1119.73 2555.81 1120 2567.28 1123.07C2582.74 1127.47 2600.21 1134.8 2610.88 1141.47C2625.68 1150.8 2633.01 1153.73 2643.28 1154.4C2669.01 1156 2700.34 1138.4 2705.94 1118.93C2714.88 1088.27 2715.14 1084.53 2708.08 1073.73C2707.55 1072.91 2707.05 1072.14 2706.58 1071.42C2702.3 1064.81 2700.55 1062.11 2701.29 1060.74C2701.79 1059.79 2703.47 1059.47 2706.3 1058.93L2706.33 1058.93C2706.75 1058.85 2707.2 1058.76 2707.68 1058.67C2719.28 1056.13 2727.68 1051.2 2737.94 1040.8C2748.61 1029.87 2755.01 1018.13 2757.94 1004.27C2760.61 992 2760.48 983.467 2757.14 967.6C2750.88 936.534 2739.68 918.8 2716.34 902.934L2708.08 897.334L2706.34 900.934L2704.61 904.667L2665.94 904.267C2613.54 903.6 2588.61 907.067 2565.41 918C2548.48 926.134 2540.34 934.4 2537.14 947.2C2534.74 957.067 2537.68 966.667 2550.08 988.934C2553.28 994.534 2553.68 996.4 2552.61 999.334C2551.81 1001.47 2549.94 1003.6 2548.21 1004.13C2545.68 1005.07 2544.34 1004.67 2541.41 1001.6C2535.94 996 2528.34 981.6 2525.41 970.667C2517.14 940.934 2528.21 917.867 2557.94 903.334C2583.94 890.4 2613.01 886 2664.88 886.934C2694.48 887.467 2700.34 888 2703.28 889.867C2705.14 891.067 2706.61 892.934 2706.61 894.134C2706.61 895.506 2707.09 896.001 2708.08 895.601C2709.58 894.992 2712.26 892.3 2716.21 887.467C2732.74 866.934 2740.21 841.6 2736.08 819.734C2733.54 806.4 2724.21 788.8 2714.08 777.734C2709.14 772.534 2702.61 766.934 2699.54 765.467C2692.08 761.867 2690.08 761.867 2691.94 765.2C2694.21 769.467 2693.54 777.067 2690.74 779.867C2688.08 782.534 2686.08 782.934 2657.28 785.334C2624.08 788.267 2595.81 794 2577.94 801.467C2559.94 809.067 2545.81 821.2 2541.68 832.267C2539.28 839.2 2539.68 854.134 2542.74 865.334C2545.81 876.8 2545.01 881.067 2539.41 884.667C2530.34 890.667 2522.88 876.4 2521.68 850.4C2521.01 838.534 2521.41 834.8 2523.68 827.067C2531.94 800.134 2555.54 782.667 2597.94 772C2612.08 768.4 2636.61 764.267 2645.68 763.867C2648.08 763.734 2644.74 763.2 2638.34 762.534C2631.94 762 2621.41 760.134 2615.01 758.267C2608.61 756.4 2596.08 753.334 2587.28 751.467C2578.48 749.6 2569.81 746.934 2567.94 745.6C2559.68 739.734 2550.08 709.734 2550.88 692C2551.28 682.8 2551.81 681.2 2557.54 671.467C2567.54 654.667 2568.61 643.467 2562.48 615.334C2547.94 547.6 2515.54 508.8 2468.21 502.534C2442.61 499.067 2411.14 507.734 2393.81 522.934C2381.68 533.6 2381.01 545.734 2391.01 567.6C2408.08 604.8 2422.88 694.134 2423.14 760.667C2423.28 807.067 2419.68 822 2401.01 851.6C2387.14 873.734 2382.48 882.4 2375.54 900C2367.94 918.8 2363.54 935.334 2359.81 958C2357.28 973.067 2356.88 982.534 2356.34 1030.67C2355.94 1063.07 2355.14 1087.07 2354.34 1088.4C2352.48 1091.87 2319.41 1142 2234.34 1270.13C2194.34 1330.4 2157.81 1385.47 2153.14 1392.67L2144.74 1405.47L2142.21 1398.8C2139.28 1390.8 2128.88 1378.93 2120.74 1374.13C2105.28 1365.07 2078.74 1359.47 2042.21 1357.47C2030.61 1356.8 2020.88 1356 2020.48 1355.6C2020.08 1355.2 2016.74 1344.8 2013.14 1332.4C1987.54 1245.73 1981.41 1226 1963.01 1170C1946.34 1119.33 1927.01 1064.4 1902.61 998C1868.08 904.267 1856.34 871.867 1845.68 841.334C1823.41 777.467 1777.41 652.667 1744.21 566C1660.61 348 1580.88 151.2 1533.94 46.6667C1526.88 30.9334 1519.28 14 1517.01 8.93335C1514.74 4.00002 1512.48 0 1511.94 0C1511.41 0 1503.54 8.26684 1494.34 18.2668ZM2620.08 1021.87C2645.14 1026.4 2689.81 1041.87 2696.21 1048.27C2701.68 1053.73 2697.01 1066.53 2690.21 1064.93C2688.61 1064.53 2680.08 1061.2 2671.28 1057.6C2640.48 1045.07 2616.48 1039.73 2589.94 1039.47C2568.88 1039.33 2560.88 1041.07 2550.34 1048C2545.68 1051.07 2543.01 1054.27 2539.94 1060.4C2535.94 1068.4 2535.81 1069.2 2536.08 1084C2536.48 1100 2535.41 1104.53 2530.88 1105.6C2522.88 1107.73 2519.41 1100.13 2519.41 1080.67C2519.28 1046.4 2536.34 1026.13 2570.34 1020C2579.01 1018.4 2606.34 1019.47 2620.08 1021.87ZM995.542 1293.33C1007.54 1389.6 1054.08 1466.4 1130.61 1516.4C1196.61 1559.33 1286.08 1581.07 1389.28 1579.2C1503.28 1577.07 1610.88 1548.53 1680.74 1502.13C1726.21 1472 1760.21 1433.2 1782.74 1386C1793.14 1363.87 1805.28 1326.67 1805.28 1316.53C1805.28 1314.67 1806.08 1312.93 1807.01 1312.53C1807.94 1312.27 1817.41 1316 1827.94 1321.07C1853.81 1333.33 1872.61 1341.6 1904.61 1354.67C1938.61 1368.4 1976.74 1387.07 1977.81 1390.27C1980.21 1398.27 2005.28 1494.67 2012.48 1523.47C2037.68 1624.93 2055.41 1719.2 2064.48 1800.67C2071.28 1860.53 2072.88 1908.13 2070.74 1990C2069.14 2054 2067.94 2075.73 2063.94 2125.33C2049.14 2303.73 2011.28 2424 1962.08 2448.93C1958.34 2450.8 1952.08 2452.67 1947.81 2452.93C1941.28 2453.6 1939.01 2453.07 1931.68 2449.73C1914.74 2441.73 1899.14 2425.73 1854.48 2370C1840.48 2352.4 1826.74 2335.6 1824.08 2332.53C1821.41 2329.6 1815.94 2323.33 1811.94 2318.67C1773.54 2273.6 1725.81 2232.4 1681.41 2205.6C1639.41 2180.27 1602.21 2165.87 1539.94 2150.8C1382.08 2112.53 1273.68 2119.47 1140.61 2176.27C1076.48 2203.6 974.209 2259.6 905.942 2304.67C864.875 2331.73 837.942 2352.4 794.075 2390.67C764.609 2416.13 753.142 2424.27 740.075 2428.8C720.342 2435.6 693.542 2436.53 680.342 2430.8C662.342 2422.93 651.275 2399.87 645.942 2359.33C640.742 2319.87 640.742 2227.73 645.942 2173.33C655.675 2071.33 686.609 1910.53 745.942 1654.67C748.086 1645.44 750.304 1635.92 752.421 1626.84L752.485 1626.56C757.318 1605.82 761.611 1587.4 763.275 1580C779.409 1510.27 801.409 1428.4 819.942 1369.2L825.275 1352.4L842.209 1344.4C877.542 1327.6 989.275 1278.8 991.942 1279.07C993.275 1279.33 994.342 1282.93 995.542 1293.33ZM697.275 1300.93C701.809 1312.8 706.075 1320.13 713.809 1329.73C720.742 1338.13 739.009 1353.73 754.742 1364.93C764.209 1371.47 765.409 1372.8 764.875 1375.87C764.609 1377.73 761.142 1389.87 757.275 1402.67C747.142 1436.53 741.009 1458.53 733.275 1488C723.675 1524.93 690.475 1667.47 669.142 1763.6C659.142 1808.27 655.942 1819.07 655.942 1808.27C655.809 1802.67 651.275 1794 645.275 1788.13C638.742 1781.87 629.275 1778 617.275 1776.8C607.542 1775.87 606.609 1776.13 589.809 1788.93C584.875 1792.67 578.075 1796.53 575.009 1797.47C560.875 1801.33 544.875 1795.2 525.275 1778.27C513.409 1767.87 464.609 1715.6 455.009 1702.8C445.142 1689.87 442.609 1677.33 448.475 1671.73C453.409 1667.2 454.742 1662.13 455.542 1646C456.475 1627.6 454.475 1619.73 445.809 1607.87C435.942 1594.67 434.209 1589.47 433.542 1573.33C432.875 1557.6 435.675 1538.67 443.409 1504C452.209 1464.8 466.342 1415.73 476.875 1387.07L482.875 1370.53L497.675 1363.2C554.875 1334.4 639.409 1301.33 675.942 1293.33C692.742 1289.6 692.875 1289.6 697.275 1300.93ZM1404.65 1520.67C1606.69 1520.67 1766.94 1431.75 1766.94 1268.83C1766.94 1192.2 1729.08 1105.29 1670 1046.7C1603.48 980.739 1509.54 947.667 1402.53 947.667C1288.22 947.667 1198.13 974.434 1132.22 1041.04C1081.64 1092.17 1040.94 1173.33 1040.94 1244.07C1040.94 1327.29 1072.51 1410.19 1140.71 1459.12C1206.03 1505.99 1305.81 1520.67 1404.65 1520.67Z" fill="#111111"/>
<path fill-rule="evenodd" clip-rule="evenodd" d="M1766.94 1268.83C1766.94 1431.75 1606.69 1520.67 1404.65 1520.67C1305.81 1520.67 1206.03 1505.99 1140.71 1459.12C1072.51 1410.19 1040.94 1327.29 1040.94 1244.07C1040.94 1173.33 1081.64 1092.17 1132.22 1041.04C1198.13 974.434 1288.22 947.667 1402.53 947.667C1509.54 947.667 1603.48 980.739 1670 1046.7C1729.08 1105.29 1766.94 1192.2 1766.94 1268.83ZM1340.88 1034.53C1333.41 1019.2 1317.94 1007.73 1297.81 1002.67C1288.61 1000.27 1264.34 999.067 1259.28 1000.67C1258.61 1000.93 1253.41 1002.13 1247.94 1003.33C1214.61 1010.93 1181.94 1037.33 1169.94 1066.13C1166.61 1074 1166.08 1077.2 1166.08 1088C1166.08 1099.2 1166.48 1101.47 1169.54 1107.33C1179.14 1125.47 1198.74 1134.67 1228.08 1134.67C1275.81 1134.67 1323.41 1110.27 1339.68 1077.47C1344.34 1068 1344.61 1066.67 1344.61 1054.8C1344.61 1043.47 1344.21 1041.07 1340.88 1034.53Z" fill="#B30839"/>
<path d="M2691.94 765.2C2694.21 769.467 2693.54 777.067 2690.74 779.867C2688.08 782.534 2686.08 782.934 2657.28 785.334C2624.08 788.267 2595.81 794 2577.94 801.467C2559.94 809.067 2545.81 821.2 2541.68 832.267C2539.28 839.2 2539.68 854.134 2542.74 865.334C2545.81 876.8 2545.01 881.067 2539.41 884.667C2530.34 890.667 2522.88 876.4 2521.68 850.4C2521.01 838.534 2521.41 834.8 2523.68 827.067C2531.94 800.134 2555.54 782.667 2597.94 772C2612.08 768.4 2636.61 764.267 2645.68 763.867L2691.94 765.2Z" fill="#808285"/>
<path d="M2708.08 897.334L2706.34 900.934L2704.61 904.667L2665.94 904.267C2613.54 903.6 2588.61 907.067 2565.41 918C2548.48 926.134 2540.34 934.4 2537.14 947.2C2534.74 957.067 2537.68 966.667 2550.08 988.934C2553.28 994.534 2553.68 996.4 2552.61 999.334C2551.81 1001.47 2549.94 1003.6 2548.21 1004.13C2545.68 1005.07 2544.34 1004.67 2541.41 1001.6C2535.94 996 2528.34 981.6 2525.41 970.667C2517.14 940.934 2528.21 917.867 2557.94 903.334C2583.94 890.4 2613.01 886 2664.88 886.934C2694.48 887.467 2700.34 888 2703.28 889.867C2705.14 891.067 2706.61 892.934 2706.61 894.134C2706.61 895.506 2707.09 896.001 2708.08 895.601V897.334Z" fill="#808285"/>
<path d="M2620.08 1021.87C2645.14 1026.4 2689.81 1041.87 2696.21 1048.27C2701.68 1053.73 2697.01 1066.53 2690.21 1064.93C2688.61 1064.53 2680.08 1061.2 2671.28 1057.6C2640.48 1045.07 2616.48 1039.73 2589.94 1039.47C2568.88 1039.33 2560.88 1041.07 2550.34 1048C2545.68 1051.07 2543.01 1054.27 2539.94 1060.4C2535.94 1068.4 2535.81 1069.2 2536.08 1084C2536.48 1100 2535.41 1104.53 2530.88 1105.6C2522.88 1107.73 2519.41 1100.13 2519.41 1080.67C2519.28 1046.4 2536.34 1026.13 2570.34 1020C2579.01 1018.4 2606.34 1019.47 2620.08 1021.87Z" fill="#808285"/>
</svg>
